# xmcd
#
# Track frame offsets:
#	152
#	13412
#	33105
#	51540
#	78762
#	90622
#	108165
#	120330
#	132750
#	152205
#	174122
#	190067
#	206195
#	219117
#	236415
#	265080
#	284695
#	298062
#
# Disc length: 4265 seconds
#
# Revision: 2
# Processed by: cddbd v1.5.1PL0 Copyright (c) Steve Scherf et al.
# Submitted via: audiograbber 1.80
#
DISCID=f610a712
DTITLE=Ronnie Earl and The Broadcasters - Test Of Time
DYEAR=1900
DGENRE=
TTITLE0=Ronnie Johnnie
TTITLE1=I Smell Trouble
TTITLE2=Ridin' In The Moonlight
TTITLE3=Baby Doll Blues
TTITLE4=You Give Me Nothing But The Blues
TTITLE5=Narcolepsy
TTITLE6=Waitin' For My Chance
TTITLE7=Soul Searchin'
TTITLE8=Backstroke
TTITLE9=Shops Passing In The Night
TTITLE10=I Want To Shout About It
TTITLE11=I Wish You Could See Me Now
TTITLE12=I Cried My Eyes Out
TTITLE13=T-Bone Boogie
TTITLE14=A Soul That's Been Abused
TTITLE15=One Of These Mornings
TTITLE16=Off The Hook
TTITLE17=Akos
EXTD=
EXTT0=
EXTT1=
EXTT2=
EXTT3=
EXTT4=
EXTT5=
EXTT6=
EXTT7=
EXTT8=
EXTT9=
EXTT10=
EXTT11=
EXTT12=
EXTT13=
EXTT14=
EXTT15=
EXTT16=
EXTT17=
PLAYORDER=
